<?xml version="1.0" encoding="utf-8"?>
<!-- Generator: Adobe Illustrator 22.1.0, SVG Export Plug-In . SVG Version: 6.00 Build 0)  -->
<svg version="1.1" id="Layer_1" xmlns="http://www.w3.org/2000/svg" xmlns:xlink="http://www.w3.org/1999/xlink" x="0px" y="0px"
	 viewBox="0 0 512 512" style="enable-background:new 0 0 512 512;" xml:space="preserve">
<style type="text/css">
	.st0{fill:#E6E6E6;stroke:#000000;stroke-width:8;stroke-miterlimit:10;}
	.st1{fill:#FFFFFF;}
	.st2{fill:#1B855E;stroke:#000000;stroke-width:5;stroke-miterlimit:10;}
	.st3{fill:#FBB03B;stroke:#000000;stroke-width:5;stroke-miterlimit:10;}
	.st4{fill:#FF0000;stroke:#000000;stroke-width:5;stroke-miterlimit:10;}
</style>
<g>
	<ellipse class="st0" cx="287.1" cy="168" rx="68.6" ry="67.6"/>
	<ellipse cx="293.8" cy="161.3" rx="39.4" ry="38.8"/>
	<ellipse class="st1" cx="315.2" cy="131.4" rx="14.6" ry="14.4"/>
</g>
<path class="st2" d="M246.7,21.9c45,32.2,55.1-6.7,122.6,38.8c55.1,42.1,36,84.3,66.4,110.9c-82.1-67.6-49.5-55.5-87.8-85.4
	C314.2,58.5,329.9,87.3,246.7,21.9z"/>
<path class="st3" d="M120.1,428.5l-29.7-23.6l-13.8,16.9c-5.5,6.8-4.6,16.8,2.2,22.3c0.1,0.1,0.2,0.1,0.3,0.2
	c4.7,7.7,14.8,10.2,22.5,5.4c1.8-1.1,3.4-2.6,4.7-4.3L120.1,428.5z"/>
<path class="st4" d="M133.1,167.2c0,34.8,12.2,68.6,34.6,95.3l21.7-26.6c-14.7-19.9-22.6-44-22.6-68.7c0-64.8,29.3-87.6,90-114.2
	c0.1,0,0.6,0.6,0,0l-7.1-32.3C182.8,36.8,133.1,96.3,133.1,167.2z"/>
<path class="st3" d="M406,167.2c-0.2-2.2-0.7-4.6-0.7-0.1c0,64.8-53.5,117.5-119.2,117.5c-27.6,0-54.3-9.4-75.7-26.8l-99,121.6
	l29.7,23.6l80.9-99c20.1,9.2,42,13.9,64.1,13.9c83.1,0,151-65.7,153-147.1L406,167.2z"/>
</svg>
